<svg xmlns="http://www.w3.org/2000/svg" viewBox="0 0 48 48" fill="none">
  <defs>
    <linearGradient id="bgGrad" x1="0" y1="0" x2="48" y2="48" gradientUnits="userSpaceOnUse">
      <stop offset="0%" stop-color="#1B8A5A"/>
      <stop offset="100%" stop-color="#0D5C3C"/>
    </linearGradient>
    <linearGradient id="leafGrad" x1="16" y1="10" x2="36" y2="38" gradientUnits="userSpaceOnUse">
      <stop offset="0%" stop-color="#FFFFFF" stop-opacity="0.95"/>
      <stop offset="100%" stop-color="#A8E6CF" stop-opacity="0.9"/>
    </linearGradient>
  </defs>
  <rect width="48" height="48" rx="12" fill="url(#bgGrad)"/>
  <g transform="translate(24,24)">
    <path d="M-2,-12 C-2,-12 -12,0 -12,8 C-12,14 -7,17 -2,17 L-2,4" stroke="url(#leafGrad)" stroke-width="2.2" fill="none" stroke-linecap="round" stroke-linejoin="round"/>
    <path d="M2,-12 C2,-12 12,0 12,8 C12,14 7,17 2,17 L2,4" stroke="url(#leafGrad)" stroke-width="2.2" fill="none" stroke-linecap="round" stroke-linejoin="round"/>
    <path d="M0,-14 L0,17" stroke="url(#leafGrad)" stroke-width="2.2" stroke-linecap="round"/>
    <path d="M-8,2 Q0,-2 8,2" stroke="url(#leafGrad)" stroke-width="1.5" fill="none" stroke-linecap="round"/>
    <path d="M-6,7 Q0,4 6,7" stroke="url(#leafGrad)" stroke-width="1.5" fill="none" stroke-linecap="round"/>
    <circle cx="0" cy="-14" r="2" fill="url(#leafGrad)" opacity="0.8"/>
  </g>
</svg>
